<?xml version="1.0" encoding="UTF-8"?>
<svg width="329px" height="32px" viewBox="0 0 329 32" version="1.1" xmlns="http://www.w3.org/2000/svg" xmlns:xlink="http://www.w3.org/1999/xlink">
    <!-- Generator: sketchtool 57.1 (101010) - https://sketch.com -->
    <title>EC319CDB-60ED-4CC0-B2EA-79CD13AE9F2E</title>
    <desc>Created with sketchtool.</desc>
    <g id="Asset-Artboard-Page" stroke="none" stroke-width="1" fill="none" fill-rule="evenodd">
        <g id="Logo/Header/Long/Blue" transform="translate(0.189424, 0.000000)" fill="#072244" fill-rule="nonzero">
            <path d="M1.872,7.008 L13.416,7.008 L13.416,10.464 L5.616,10.464 L5.616,13.632 L12.984,13.632 L12.984,17.088 L5.616,17.088 L5.616,20.544 L13.848,20.544 L13.848,24 L1.872,24 L1.872,7.008 Z M16.848,7.008 L22.464,7.008 C23.8240068,7.008 25.1159939,7.15999848 26.34,7.464 C27.5640061,7.76800152 28.6319954,8.2599966 29.544,8.94 C30.4560046,9.6200034 31.1799973,10.5039946 31.716,11.592 C32.2520027,12.6800054 32.52,13.9999922 32.52,15.552 C32.52,16.9280069 32.2600026,18.1399948 31.74,19.188 C31.2199974,20.2360052 30.5200044,21.1159964 29.64,21.828 C28.7599956,22.5400036 27.7440058,23.0799982 26.592,23.448 C25.4399942,23.8160018 24.2320063,24 22.968,24 L16.848,24 L16.848,7.008 Z M20.592,20.544 L22.536,20.544 C23.4000043,20.544 24.2039963,20.4560009 24.948,20.28 C25.6920037,20.1039991 26.3359973,19.812002 26.88,19.404 C27.4240027,18.995998 27.8519984,18.4600033 28.164,17.796 C28.4760016,17.1319967 28.632,16.3200048 28.632,15.36 C28.632,14.5279958 28.4760016,13.8040031 28.164,13.188 C27.8519984,12.5719969 27.4320026,12.064002 26.904,11.664 C26.3759974,11.263998 25.7560036,10.964 25.044,10.764 C24.3319964,10.563999 23.5840039,10.464 22.8,10.464 L20.592,10.464 L20.592,20.544 Z M33.288,7.008 L37.368,7.008 L40.08,17.904 L40.128,17.904 L43.68,7.008 L47.16,7.008 L50.688,18.192 L50.736,18.192 L53.592,7.008 L57.384,7.008 L52.416,24 L49.08,24 L45.336,12.24 L45.288,12.24 L41.544,24 L38.328,24 L33.288,7.008 Z M64.656,7.008 L67.752,7.008 L75.144,24 L70.92,24 L69.456,20.4 L62.856,20.4 L61.44,24 L57.312,24 L64.656,7.008 Z M66.096,11.952 L64.032,17.232 L68.184,17.232 L66.096,11.952 Z M76.848,7.008 L83.424,7.008 C84.2880043,7.008 85.1079961,7.09199916 85.884,7.26 C86.6600039,7.42800084 87.3399971,7.70799804 87.924,8.1 C88.5080029,8.49200196 88.9719983,9.01999668 89.316,9.684 C89.6600017,10.3480033 89.832,11.175995 89.832,12.168 C89.832,13.368006 89.5200031,14.3879958 88.896,15.228 C88.2719969,16.0680042 87.360006,16.5999989 86.16,16.824 L90.48,24 L85.992,24 L82.44,17.208 L80.592,17.208 L80.592,24 L76.848,24 L76.848,7.008 Z M80.592,14.04 L82.8,14.04 C83.1360017,14.04 83.4919981,14.0280001 83.868,14.004 C84.2440019,13.9799999 84.5839985,13.9080006 84.888,13.788 C85.1920015,13.6679994 85.443999,13.4800013 85.644,13.224 C85.844001,12.9679987 85.944,12.6080023 85.944,12.144 C85.944,11.7119978 85.8560009,11.3680013 85.68,11.112 C85.5039991,10.8559987 85.2800014,10.6600007 85.008,10.524 C84.7359986,10.3879993 84.4240018,10.2960002 84.072,10.248 C83.7199982,10.1999998 83.3760017,10.176 83.04,10.176 L80.592,10.176 L80.592,14.04 Z M92.4,7.008 L98.016,7.008 C99.3760068,7.008 100.667994,7.15999848 101.892,7.464 C103.116006,7.76800152 104.183995,8.2599966 105.096,8.94 C106.008005,9.6200034 106.731997,10.5039946 107.268,11.592 C107.804003,12.6800054 108.072,13.9999922 108.072,15.552 C108.072,16.9280069 107.812003,18.1399948 107.292,19.188 C106.771997,20.2360052 106.072004,21.1159964 105.192,21.828 C104.311996,22.5400036 103.296006,23.0799982 102.144,23.448 C100.991994,23.8160018 99.7840063,24 98.52,24 L92.4,24 L92.4,7.008 Z M96.144,20.544 L98.088,20.544 C98.9520043,20.544 99.7559963,20.4560009 100.5,20.28 C101.244004,20.1039991 101.887997,19.812002 102.432,19.404 C102.976003,18.995998 103.403998,18.4600033 103.716,17.796 C104.028002,17.1319967 104.184,16.3200048 104.184,15.36 C104.184,14.5279958 104.028002,13.8040031 103.716,13.188 C103.403998,12.5719969 102.984003,12.064002 102.456,11.664 C101.927997,11.263998 101.308004,10.964 100.596,10.764 C99.8839964,10.563999 99.1360039,10.464 98.352,10.464 L96.144,10.464 L96.144,20.544 Z M117.342,11.256 L121.788,11.256 C122.688005,11.256 123.476997,11.357999 124.155,11.562 C124.833003,11.766001 125.420998,12.0389983 125.919,12.381 C126.417002,12.7230017 126.830998,13.1159978 127.161,13.56 C127.491002,14.0040022 127.751999,14.4599977 127.944,14.928 C128.136001,15.3960023 128.274,15.8639977 128.358,16.332 C128.442,16.8000023 128.484,17.231998 128.484,17.628 C128.484,18.4440041 128.334001,19.2329962 128.034,19.995 C127.733998,20.7570038 127.290003,21.434997 126.702,22.029 C126.113997,22.623003 125.385004,23.0999982 124.515,23.46 C123.644996,23.8200018 122.640006,24 121.5,24 L117.342,24 L117.342,11.256 Z M119.07,22.38 L121.248,22.38 C121.980004,22.38 122.672997,22.281001 123.327,22.083 C123.981003,21.884999 124.553998,21.588002 125.046,21.192 C125.538002,20.795998 125.927999,20.301003 126.216,19.707 C126.504001,19.112997 126.648,18.420004 126.648,17.628 C126.648,17.219998 126.582001,16.7430027 126.45,16.197 C126.317999,15.6509973 126.069002,15.1320025 125.703,14.64 C125.336998,14.1479975 124.830003,13.7310017 124.182,13.389 C123.533997,13.0469983 122.694005,12.876 121.662,12.876 L119.07,12.876 L119.07,22.38 Z M131.778,20.328 C131.778,20.7000019 131.858999,21.0389985 132.021,21.345 C132.183001,21.6510015 132.395999,21.9119989 132.66,22.128 C132.924001,22.3440011 133.229998,22.5119994 133.578,22.632 C133.926002,22.752 134.285998,22.812 134.658,22.812 C135.162003,22.812 135.599998,22.6950012 135.972,22.461 C136.344002,22.2269988 136.685998,21.9180019 136.998,21.534 L138.222,22.47 C137.321996,23.6340058 136.062008,24.216 134.442,24.216 C133.769997,24.216 133.161003,24.1020011 132.615,23.874 C132.068997,23.6459989 131.607002,23.331002 131.229,22.929 C130.850998,22.526998 130.560001,22.0530027 130.356,21.507 C130.151999,20.9609973 130.05,20.3700032 130.05,19.734 C130.05,19.0979968 130.160999,18.5070027 130.383,17.961 C130.605001,17.4149973 130.910998,16.941002 131.301,16.539 C131.691002,16.136998 132.155997,15.8220011 132.696,15.594 C133.236003,15.3659989 133.823997,15.252 134.46,15.252 C135.216004,15.252 135.854997,15.3839987 136.377,15.648 C136.899003,15.9120013 137.327998,16.2569979 137.664,16.683 C138.000002,17.1090021 138.242999,17.5889973 138.393,18.123 C138.543001,18.6570027 138.618,19.1999972 138.618,19.752 L138.618,20.328 L131.778,20.328 Z M136.89,19.032 C136.878,18.6719982 136.821001,18.3420015 136.719,18.042 C136.616999,17.7419985 136.464001,17.4810011 136.26,17.259 C136.055999,17.0369989 135.801002,16.8630006 135.495,16.737 C135.188998,16.6109994 134.832002,16.548 134.424,16.548 C134.027998,16.548 133.665002,16.6229992 133.335,16.773 C133.004998,16.9230007 132.726001,17.1179988 132.498,17.358 C132.269999,17.5980012 132.093001,17.8649985 131.967,18.159 C131.840999,18.4530015 131.778,18.7439986 131.778,19.032 L136.89,19.032 Z M146.664,17.736 C146.363999,17.4239984 146.049002,17.1870008 145.719,17.025 C145.388998,16.8629992 144.996002,16.782 144.54,16.782 C144.095998,16.782 143.709002,16.8629992 143.379,17.025 C143.048998,17.1870008 142.773001,17.4089986 142.551,17.691 C142.328999,17.9730014 142.161001,18.2969982 142.047,18.663 C141.932999,19.0290018 141.876,19.409998 141.876,19.806 C141.876,20.202002 141.941999,20.5769982 142.074,20.931 C142.206001,21.2850018 142.391999,21.5939987 142.632,21.858 C142.872001,22.1220013 143.159998,22.3289992 143.496,22.479 C143.832002,22.6290007 144.209998,22.704 144.63,22.704 C145.086002,22.704 145.475998,22.6230008 145.8,22.461 C146.124002,22.2989992 146.423999,22.0620016 146.7,21.75 L147.852,22.902 C147.431998,23.3700023 146.943003,23.705999 146.385,23.91 C145.826997,24.114001 145.236003,24.216 144.612,24.216 C143.951997,24.216 143.349003,24.1080011 142.803,23.892 C142.256997,23.6759989 141.786002,23.3730019 141.39,22.983 C140.993998,22.592998 140.688001,22.1250027 140.472,21.579 C140.255999,21.0329973 140.148,20.4300033 140.148,19.77 C140.148,19.1099967 140.255999,18.5040028 140.472,17.952 C140.688001,17.3999972 140.990998,16.926002 141.381,16.53 C141.771002,16.133998 142.238997,15.8250011 142.785,15.603 C143.331003,15.3809989 143.939997,15.27 144.612,15.27 C145.236003,15.27 145.832997,15.3809989 146.403,15.603 C146.973003,15.8250011 147.467998,16.1639977 147.888,16.62 L146.664,17.736 Z M149.364,15.468 L150.984,15.468 L150.984,24 L149.364,24 L149.364,15.468 Z M148.986,12.408 C148.986,12.0839984 149.102999,11.8050012 149.337,11.571 C149.571001,11.3369988 149.849998,11.22 150.174,11.22 C150.498002,11.22 150.776999,11.3369988 151.011,11.571 C151.245001,11.8050012 151.362,12.0839984 151.362,12.408 C151.362,12.7320016 151.245001,13.0109988 151.011,13.245 C150.776999,13.4790012 150.498002,13.596 150.174,13.596 C149.849998,13.596 149.571001,13.4790012 149.337,13.245 C149.102999,13.0109988 148.986,12.7320016 148.986,12.408 Z M158.094,17.61 C157.901999,17.3699988 157.665001,17.1690008 157.383,17.007 C157.100999,16.8449992 156.756002,16.764 156.348,16.764 C155.963998,16.764 155.631001,16.8449992 155.349,17.007 C155.066999,17.1690008 154.926,17.4059984 154.926,17.718 C154.926,17.9700013 155.006999,18.1739992 155.169,18.33 C155.331001,18.4860008 155.522999,18.6119995 155.745,18.708 C155.967001,18.8040005 156.203999,18.8759998 156.456,18.924 C156.708001,18.9720002 156.923999,19.0139998 157.104,19.05 C157.452002,19.1340004 157.778998,19.2359994 158.085,19.356 C158.391002,19.4760006 158.654999,19.631999 158.877,19.824 C159.099001,20.016001 159.272999,20.2499986 159.399,20.526 C159.525001,20.8020014 159.588,21.137998 159.588,21.534 C159.588,22.0140024 159.486001,22.4249983 159.282,22.767 C159.077999,23.1090017 158.814002,23.3879989 158.49,23.604 C158.165998,23.8200011 157.797002,23.9759995 157.383,24.072 C156.968998,24.1680005 156.552002,24.216 156.132,24.216 C155.423996,24.216 154.803003,24.1080011 154.269,23.892 C153.734997,23.6759989 153.258002,23.2800029 152.838,22.704 L154.062,21.696 C154.326001,21.9600013 154.619998,22.193999 154.944,22.398 C155.268002,22.602001 155.663998,22.704 156.132,22.704 C156.336001,22.704 156.542999,22.6830002 156.753,22.641 C156.963001,22.5989998 157.148999,22.5330004 157.311,22.443 C157.473001,22.3529995 157.604999,22.2390007 157.707,22.101 C157.809001,21.9629993 157.86,21.8040009 157.86,21.624 C157.86,21.3839988 157.785001,21.1860008 157.635,21.03 C157.484999,20.8739992 157.305001,20.7510004 157.095,20.661 C156.884999,20.5709995 156.663001,20.4990003 156.429,20.445 C156.194999,20.3909997 155.988001,20.3460002 155.808,20.31 C155.459998,20.2259996 155.130002,20.1300005 154.818,20.022 C154.505998,19.9139995 154.230001,19.7700009 153.99,19.59 C153.749999,19.4099991 153.558001,19.1820014 153.414,18.906 C153.269999,18.6299986 153.198,18.288002 153.198,17.88 C153.198,17.4359978 153.290999,17.0490016 153.477,16.719 C153.663001,16.3889984 153.908998,16.1160011 154.215,15.9 C154.521002,15.6839989 154.868998,15.5220005 155.259,15.414 C155.649002,15.3059995 156.041998,15.252 156.438,15.252 C157.014003,15.252 157.565997,15.3599989 158.094,15.576 C158.622003,15.7920011 159.041998,16.1519975 159.354,16.656 L158.094,17.61 Z M161.676,15.468 L163.296,15.468 L163.296,24 L161.676,24 L161.676,15.468 Z M161.298,12.408 C161.298,12.0839984 161.414999,11.8050012 161.649,11.571 C161.883001,11.3369988 162.161998,11.22 162.486,11.22 C162.810002,11.22 163.088999,11.3369988 163.323,11.571 C163.557001,11.8050012 163.674,12.0839984 163.674,12.408 C163.674,12.7320016 163.557001,13.0109988 163.323,13.245 C163.088999,13.4790012 162.810002,13.596 162.486,13.596 C162.161998,13.596 161.883001,13.4790012 161.649,13.245 C161.414999,13.0109988 161.298,12.7320016 161.298,12.408 Z M167.184,19.734 C167.184,20.1660022 167.249999,20.5649982 167.382,20.931 C167.514001,21.2970018 167.699999,21.6089987 167.94,21.867 C168.180001,22.1250013 168.473998,22.3289992 168.822,22.479 C169.170002,22.6290007 169.559998,22.704 169.992,22.704 C170.424002,22.704 170.813998,22.6290007 171.162,22.479 C171.510002,22.3289992 171.803999,22.1250013 172.044,21.867 C172.284001,21.6089987 172.469999,21.2970018 172.602,20.931 C172.734001,20.5649982 172.8,20.1660022 172.8,19.734 C172.8,19.3019978 172.734001,18.9030018 172.602,18.537 C172.469999,18.1709982 172.284001,17.8590013 172.044,17.601 C171.803999,17.3429987 171.510002,17.1390007 171.162,16.989 C170.813998,16.8389993 170.424002,16.764 169.992,16.764 C169.559998,16.764 169.170002,16.8389993 168.822,16.989 C168.473998,17.1390007 168.180001,17.3429987 167.94,17.601 C167.699999,17.8590013 167.514001,18.1709982 167.382,18.537 C167.249999,18.9030018 167.184,19.3019978 167.184,19.734 Z M165.456,19.734 C165.456,19.1099969 165.572999,18.5280027 165.807,17.988 C166.041001,17.4479973 166.361998,16.974002 166.77,16.566 C167.178002,16.157998 167.657997,15.8370012 168.21,15.603 C168.762003,15.3689988 169.355997,15.252 169.992,15.252 C170.628003,15.252 171.221997,15.3689988 171.774,15.603 C172.326003,15.8370012 172.805998,16.157998 173.214,16.566 C173.622002,16.974002 173.942999,17.4479973 174.177,17.988 C174.411001,18.5280027 174.528,19.1099969 174.528,19.734 C174.528,20.3580031 174.411001,20.9429973 174.177,21.489 C173.942999,22.0350027 173.622002,22.508998 173.214,22.911 C172.805998,23.313002 172.326003,23.6309988 171.774,23.865 C171.221997,24.0990012 170.628003,24.216 169.992,24.216 C169.355997,24.216 168.762003,24.0990012 168.21,23.865 C167.657997,23.6309988 167.178002,23.313002 166.77,22.911 C166.361998,22.508998 166.041001,22.0350027 165.807,21.489 C165.572999,20.9429973 165.456,20.3580031 165.456,19.734 Z M176.562,15.468 L178.182,15.468 L178.182,16.782 L178.218,16.782 C178.422001,16.3259977 178.775997,15.9570014 179.28,15.675 C179.784003,15.3929986 180.365997,15.252 181.026,15.252 C181.434002,15.252 181.826998,15.3149994 182.205,15.441 C182.583002,15.5670006 182.912999,15.7619987 183.195,16.026 C183.477001,16.2900013 183.701999,16.6289979 183.87,17.043 C184.038001,17.4570021 184.122,17.9459972 184.122,18.51 L184.122,24 L182.502,24 L182.502,18.96 C182.502,18.563998 182.448001,18.2250014 182.34,17.943 C182.231999,17.6609986 182.088001,17.4330009 181.908,17.259 C181.727999,17.0849991 181.521001,16.9590004 181.287,16.881 C181.052999,16.8029996 180.810001,16.764 180.558,16.764 C180.221998,16.764 179.910001,16.8179995 179.622,16.926 C179.333999,17.0340005 179.082001,17.2049988 178.866,17.439 C178.649999,17.6730012 178.482001,17.9699982 178.362,18.33 C178.241999,18.6900018 178.182,19.1159975 178.182,19.608 L178.182,24 L176.562,24 L176.562,15.468 Z M190.404,20.4 L185.976,20.4 L185.976,18.888 L190.404,18.888 L190.404,20.4 Z M192.546,11.256 L195.12,11.256 L199.17,20.904 L199.242,20.904 L203.256,11.256 L205.83,11.256 L205.83,24 L204.102,24 L204.102,13.524 L204.066,13.524 L199.764,24 L198.612,24 L194.31,13.524 L194.274,13.524 L194.274,24 L192.546,24 L192.546,11.256 Z M208.602,16.512 C209.058002,16.0919979 209.585997,15.777001 210.186,15.567 C210.786003,15.3569989 211.385997,15.252 211.986,15.252 C212.610003,15.252 213.146998,15.3299992 213.597,15.486 C214.047002,15.6420008 214.415999,15.8519987 214.704,16.116 C214.992001,16.3800013 215.204999,16.6829983 215.343,17.025 C215.481001,17.3670017 215.55,17.7239981 215.55,18.096 L215.55,22.452 C215.55,22.752 215.556,23.0279987 215.568,23.28 C215.58,23.5320013 215.598,23.7719989 215.622,24 L214.182,24 C214.146,23.5679978 214.128,23.1360022 214.128,22.704 L214.092,22.704 C213.731998,23.2560028 213.306002,23.6459989 212.814,23.874 C212.321998,24.1020011 211.752003,24.216 211.104,24.216 C210.707998,24.216 210.330002,24.1620005 209.97,24.054 C209.609998,23.9459995 209.295001,23.7840011 209.025,23.568 C208.754999,23.3519989 208.542001,23.0850016 208.386,22.767 C208.229999,22.4489984 208.152,22.0800021 208.152,21.66 C208.152,21.1079972 208.274999,20.6460019 208.521,20.274 C208.767001,19.9019981 209.102998,19.5990012 209.529,19.365 C209.955002,19.1309988 210.452997,18.9630005 211.023,18.861 C211.593003,18.7589995 212.201997,18.708 212.85,18.708 L214.038,18.708 L214.038,18.348 C214.038,18.1319989 213.996,17.9160011 213.912,17.7 C213.828,17.4839989 213.702001,17.2890009 213.534,17.115 C213.365999,16.9409991 213.156001,16.8030005 212.904,16.701 C212.652,16.5989995 212.352002,16.548 212.004,16.548 C211.691998,16.548 211.419001,16.5779997 211.185,16.638 C210.950999,16.6980003 210.738001,16.7729995 210.546,16.863 C210.353999,16.9530004 210.180001,17.0579994 210.024,17.178 C209.867999,17.2980006 209.718001,17.4119995 209.574,17.52 L208.602,16.512 Z M213.174,19.896 C212.789998,19.896 212.397002,19.9169998 211.995,19.959 C211.592998,20.0010002 211.227002,20.0819994 210.897,20.202 C210.566998,20.3220006 210.297001,20.4899989 210.087,20.706 C209.876999,20.9220011 209.772,21.1979983 209.772,21.534 C209.772,22.0260025 209.936998,22.3799989 210.267,22.596 C210.597002,22.8120011 211.043997,22.92 211.608,22.92 C212.052002,22.92 212.429998,22.8450007 212.742,22.695 C213.054002,22.5449992 213.305999,22.3500012 213.498,22.11 C213.690001,21.8699988 213.828,21.6030015 213.912,21.309 C213.996,21.0149985 214.038,20.7240014 214.038,20.436 L214.038,19.896 L213.174,19.896 Z M217.908,10.392 L219.528,10.392 L219.528,19.176 L223.2,15.486 L225.45,15.486 L221.472,19.356 L225.792,24 L223.488,24 L219.528,19.572 L219.528,24 L217.908,24 L217.908,10.392 Z M227.376,15.468 L228.996,15.468 L228.996,24 L227.376,24 L227.376,15.468 Z M226.998,12.408 C226.998,12.0839984 227.114999,11.8050012 227.349,11.571 C227.583001,11.3369988 227.861998,11.22 228.186,11.22 C228.510002,11.22 228.788999,11.3369988 229.023,11.571 C229.257001,11.8050012 229.374,12.0839984 229.374,12.408 C229.374,12.7320016 229.257001,13.0109988 229.023,13.245 C228.788999,13.4790012 228.510002,13.596 228.186,13.596 C227.861998,13.596 227.583001,13.4790012 227.349,13.245 C227.114999,13.0109988 226.998,12.7320016 226.998,12.408 Z M231.57,15.468 L233.19,15.468 L233.19,16.782 L233.226,16.782 C233.430001,16.3259977 233.783997,15.9570014 234.288,15.675 C234.792003,15.3929986 235.373997,15.252 236.034,15.252 C236.442002,15.252 236.834998,15.3149994 237.213,15.441 C237.591002,15.5670006 237.920999,15.7619987 238.203,16.026 C238.485001,16.2900013 238.709999,16.6289979 238.878,17.043 C239.046001,17.4570021 239.13,17.9459972 239.13,18.51 L239.13,24 L237.51,24 L237.51,18.96 C237.51,18.563998 237.456001,18.2250014 237.348,17.943 C237.239999,17.6609986 237.096001,17.4330009 236.916,17.259 C236.735999,17.0849991 236.529001,16.9590004 236.295,16.881 C236.060999,16.8029996 235.818001,16.764 235.566,16.764 C235.229998,16.764 234.918001,16.8179995 234.63,16.926 C234.341999,17.0340005 234.090001,17.2049988 233.874,17.439 C233.657999,17.6730012 233.490001,17.9699982 233.37,18.33 C233.249999,18.6900018 233.19,19.1159975 233.19,19.608 L233.19,24 L231.57,24 L231.57,15.468 Z M250.128,23.928 C250.128,24.5760032 250.017001,25.1669973 249.795,25.701 C249.572999,26.2350027 249.258002,26.6969981 248.85,27.087 C248.441998,27.4770019 247.950003,27.7799989 247.374,27.996 C246.797997,28.2120011 246.162003,28.32 245.466,28.32 C244.649996,28.32 243.903003,28.2060011 243.225,27.978 C242.546997,27.7499989 241.902003,27.3540028 241.29,26.79 L242.388,25.422 C242.808002,25.8780023 243.263998,26.2229988 243.756,26.457 C244.248002,26.6910012 244.805997,26.808 245.43,26.808 C246.030003,26.808 246.527998,26.7210009 246.924,26.547 C247.320002,26.3729991 247.634999,26.1480014 247.869,25.872 C248.103001,25.5959986 248.268,25.2810018 248.364,24.927 C248.46,24.5729982 248.508,24.2160018 248.508,23.856 L248.508,22.596 L248.454,22.596 C248.141998,23.1120026 247.719003,23.4929988 247.185,23.739 C246.650997,23.9850012 246.090003,24.108 245.502,24.108 C244.877997,24.108 244.299003,23.9970011 243.765,23.775 C243.230997,23.5529989 242.772002,23.2470019 242.388,22.857 C242.003998,22.4669981 241.704001,22.0050027 241.488,21.471 C241.271999,20.9369973 241.164,20.3580031 241.164,19.734 C241.164,19.1099969 241.265999,18.5250027 241.47,17.979 C241.674001,17.4329973 241.964998,16.956002 242.343,16.548 C242.721002,16.139998 243.176997,15.8220011 243.711,15.594 C244.245003,15.3659989 244.841997,15.252 245.502,15.252 C246.078003,15.252 246.638997,15.3779987 247.185,15.63 C247.731003,15.8820013 248.159998,16.2359977 248.472,16.692 L248.508,16.692 L248.508,15.468 L250.128,15.468 L250.128,23.928 Z M245.7,16.764 C245.267998,16.764 244.878002,16.8389993 244.53,16.989 C244.181998,17.1390007 243.888001,17.3429987 243.648,17.601 C243.407999,17.8590013 243.222001,18.1709982 243.09,18.537 C242.957999,18.9030018 242.892,19.3019978 242.892,19.734 C242.892,20.5980043 243.143997,21.2909974 243.648,21.813 C244.152003,22.3350026 244.835996,22.596 245.7,22.596 C246.564004,22.596 247.247997,22.3350026 247.752,21.813 C248.256003,21.2909974 248.508,20.5980043 248.508,19.734 C248.508,19.3019978 248.442001,18.9030018 248.31,18.537 C248.177999,18.1709982 247.992001,17.8590013 247.752,17.601 C247.511999,17.3429987 247.218002,17.1390007 246.87,16.989 C246.521998,16.8389993 246.132002,16.764 245.7,16.764 Z M257.994,11.256 L262.476,11.256 C263.292004,11.256 263.963997,11.3669989 264.492,11.589 C265.020003,11.8110011 265.436998,12.0929983 265.743,12.435 C266.049002,12.7770017 266.261999,13.1609979 266.382,13.587 C266.502001,14.0130021 266.562,14.423998 266.562,14.82 C266.562,15.216002 266.502001,15.6269979 266.382,16.053 C266.261999,16.4790021 266.049002,16.8629983 265.743,17.205 C265.436998,17.5470017 265.020003,17.8289989 264.492,18.051 C263.963997,18.2730011 263.292004,18.384 262.476,18.384 L259.722,18.384 L259.722,24 L257.994,24 L257.994,11.256 Z M259.722,16.872 L261.99,16.872 C262.326002,16.872 262.658998,16.8450003 262.989,16.791 C263.319002,16.7369997 263.612999,16.6380007 263.871,16.494 C264.129001,16.3499993 264.335999,16.1430013 264.492,15.873 C264.648001,15.6029986 264.726,15.2520022 264.726,14.82 C264.726,14.3879978 264.648001,14.0370013 264.492,13.767 C264.335999,13.4969986 264.129001,13.2900007 263.871,13.146 C263.612999,13.0019993 263.319002,12.9030003 262.989,12.849 C262.658998,12.7949997 262.326002,12.768 261.99,12.768 L259.722,12.768 L259.722,16.872 Z M268.38,10.392 L270,10.392 L270,24 L268.38,24 L268.38,10.392 Z M272.61,16.512 C273.066002,16.0919979 273.593997,15.777001 274.194,15.567 C274.794003,15.3569989 275.393997,15.252 275.994,15.252 C276.618003,15.252 277.154998,15.3299992 277.605,15.486 C278.055002,15.6420008 278.423999,15.8519987 278.712,16.116 C279.000001,16.3800013 279.212999,16.6829983 279.351,17.025 C279.489001,17.3670017 279.558,17.7239981 279.558,18.096 L279.558,22.452 C279.558,22.752 279.564,23.0279987 279.576,23.28 C279.588,23.5320013 279.606,23.7719989 279.63,24 L278.19,24 C278.154,23.5679978 278.136,23.1360022 278.136,22.704 L278.1,22.704 C277.739998,23.2560028 277.314002,23.6459989 276.822,23.874 C276.329998,24.1020011 275.760003,24.216 275.112,24.216 C274.715998,24.216 274.338002,24.1620005 273.978,24.054 C273.617998,23.9459995 273.303001,23.7840011 273.033,23.568 C272.762999,23.3519989 272.550001,23.0850016 272.394,22.767 C272.237999,22.4489984 272.16,22.0800021 272.16,21.66 C272.16,21.1079972 272.282999,20.6460019 272.529,20.274 C272.775001,19.9019981 273.110998,19.5990012 273.537,19.365 C273.963002,19.1309988 274.460997,18.9630005 275.031,18.861 C275.601003,18.7589995 276.209997,18.708 276.858,18.708 L278.046,18.708 L278.046,18.348 C278.046,18.1319989 278.004,17.9160011 277.92,17.7 C277.836,17.4839989 277.710001,17.2890009 277.542,17.115 C277.373999,16.9409991 277.164001,16.8030005 276.912,16.701 C276.66,16.5989995 276.360002,16.548 276.012,16.548 C275.699998,16.548 275.427001,16.5779997 275.193,16.638 C274.958999,16.6980003 274.746001,16.7729995 274.554,16.863 C274.361999,16.9530004 274.188001,17.0579994 274.032,17.178 C273.875999,17.2980006 273.726001,17.4119995 273.582,17.52 L272.61,16.512 Z M277.182,19.896 C276.797998,19.896 276.405002,19.9169998 276.003,19.959 C275.600998,20.0010002 275.235002,20.0819994 274.905,20.202 C274.574998,20.3220006 274.305001,20.4899989 274.095,20.706 C273.884999,20.9220011 273.78,21.1979983 273.78,21.534 C273.78,22.0260025 273.944998,22.3799989 274.275,22.596 C274.605002,22.8120011 275.051997,22.92 275.616,22.92 C276.060002,22.92 276.437998,22.8450007 276.75,22.695 C277.062002,22.5449992 277.313999,22.3500012 277.506,22.11 C277.698001,21.8699988 277.836,21.6030015 277.92,21.309 C278.004,21.0149985 278.046,20.7240014 278.046,20.436 L278.046,19.896 L277.182,19.896 Z M286.488,16.872 L284.166,16.872 L284.166,20.742 C284.166,20.9820012 284.172,21.2189988 284.184,21.453 C284.196,21.6870012 284.241,21.8969991 284.319,22.083 C284.397,22.2690009 284.516999,22.4189994 284.679,22.533 C284.841001,22.6470006 285.077998,22.704 285.39,22.704 C285.582001,22.704 285.779999,22.6860002 285.984,22.65 C286.188001,22.6139998 286.373999,22.5480005 286.542,22.452 L286.542,23.928 C286.349999,24.0360005 286.101002,24.1109998 285.795,24.153 C285.488998,24.1950002 285.252001,24.216 285.084,24.216 C284.459997,24.216 283.977002,24.1290009 283.635,23.955 C283.292998,23.7809991 283.041001,23.5560014 282.879,23.28 C282.716999,23.0039986 282.621,22.6950017 282.591,22.353 C282.561,22.0109983 282.546,21.6660017 282.546,21.318 L282.546,16.872 L280.674,16.872 L280.674,15.468 L282.546,15.468 L282.546,13.074 L284.166,13.074 L284.166,15.468 L286.488,15.468 L286.488,16.872 Z M289.206,16.872 L287.37,16.872 L287.37,15.468 L289.206,15.468 L289.206,13.56 C289.206,12.4199943 289.424998,11.5710028 289.863,11.013 C290.301002,10.4549972 291.053995,10.176 292.122,10.176 C292.302001,10.176 292.490999,10.1819999 292.689,10.194 C292.887001,10.2060001 293.099999,10.2419997 293.328,10.302 L293.148,11.742 C292.991999,11.6819997 292.842001,11.6400001 292.698,11.616 C292.553999,11.5919999 292.398001,11.58 292.23,11.58 C291.929998,11.58 291.690001,11.6249995 291.51,11.715 C291.329999,11.8050004 291.189001,11.9339992 291.087,12.102 C290.984999,12.2700008 290.919,12.4709988 290.889,12.705 C290.859,12.9390012 290.844,13.2059985 290.844,13.506 L290.844,15.468 L292.77,15.468 L292.77,16.872 L290.826,16.872 L290.826,24 L289.206,24 L289.206,16.872 Z M295.884,19.734 C295.884,20.1660022 295.949999,20.5649982 296.082,20.931 C296.214001,21.2970018 296.399999,21.6089987 296.64,21.867 C296.880001,22.1250013 297.173998,22.3289992 297.522,22.479 C297.870002,22.6290007 298.259998,22.704 298.692,22.704 C299.124002,22.704 299.513998,22.6290007 299.862,22.479 C300.210002,22.3289992 300.503999,22.1250013 300.744,21.867 C300.984001,21.6089987 301.169999,21.2970018 301.302,20.931 C301.434001,20.5649982 301.5,20.1660022 301.5,19.734 C301.5,19.3019978 301.434001,18.9030018 301.302,18.537 C301.169999,18.1709982 300.984001,17.8590013 300.744,17.601 C300.503999,17.3429987 300.210002,17.1390007 299.862,16.989 C299.513998,16.8389993 299.124002,16.764 298.692,16.764 C298.259998,16.764 297.870002,16.8389993 297.522,16.989 C297.173998,17.1390007 296.880001,17.3429987 296.64,17.601 C296.399999,17.8590013 296.214001,18.1709982 296.082,18.537 C295.949999,18.9030018 295.884,19.3019978 295.884,19.734 Z M294.156,19.734 C294.156,19.1099969 294.272999,18.5280027 294.507,17.988 C294.741001,17.4479973 295.061998,16.974002 295.47,16.566 C295.878002,16.157998 296.357997,15.8370012 296.91,15.603 C297.462003,15.3689988 298.055997,15.252 298.692,15.252 C299.328003,15.252 299.921997,15.3689988 300.474,15.603 C301.026003,15.8370012 301.505998,16.157998 301.914,16.566 C302.322002,16.974002 302.642999,17.4479973 302.877,17.988 C303.111001,18.5280027 303.228,19.1099969 303.228,19.734 C303.228,20.3580031 303.111001,20.9429973 302.877,21.489 C302.642999,22.0350027 302.322002,22.508998 301.914,22.911 C301.505998,23.313002 301.026003,23.6309988 300.474,23.865 C299.921997,24.0990012 299.328003,24.216 298.692,24.216 C298.055997,24.216 297.462003,24.0990012 296.91,23.865 C296.357997,23.6309988 295.878002,23.313002 295.47,22.911 C295.061998,22.508998 294.741001,22.0350027 294.507,21.489 C294.272999,20.9429973 294.156,20.3580031 294.156,19.734 Z M305.262,15.468 L306.882,15.468 L306.882,16.782 L306.918,16.782 C307.026001,16.5539989 307.169999,16.3470009 307.35,16.161 C307.530001,15.9749991 307.730999,15.8160007 307.953,15.684 C308.175001,15.5519993 308.417999,15.4470004 308.682,15.369 C308.946001,15.2909996 309.209999,15.252 309.474,15.252 C309.738001,15.252 309.977999,15.2879996 310.194,15.36 L310.122,17.106 C309.989999,17.0699998 309.858001,17.0400001 309.726,17.016 C309.593999,16.9919999 309.462001,16.98 309.33,16.98 C308.537996,16.98 307.932002,17.2019978 307.512,17.646 C307.091998,18.0900022 306.882,18.7799953 306.882,19.716 L306.882,24 L305.262,24 L305.262,15.468 Z M311.922,15.468 L313.434,15.468 L313.434,16.8 L313.47,16.8 C313.506,16.6799994 313.598999,16.5300009 313.749,16.35 C313.899001,16.1699991 314.090999,15.9990008 314.325,15.837 C314.559001,15.6749992 314.834998,15.5370006 315.153,15.423 C315.471002,15.3089994 315.821998,15.252 316.206,15.252 C316.842003,15.252 317.375998,15.3839987 317.808,15.648 C318.240002,15.9120013 318.593999,16.3079974 318.87,16.836 C319.146001,16.3079974 319.535997,15.9120013 320.04,15.648 C320.544003,15.3839987 321.053997,15.252 321.57,15.252 C322.230003,15.252 322.769998,15.3599989 323.19,15.576 C323.610002,15.7920011 323.939999,16.0769982 324.18,16.431 C324.420001,16.7850018 324.585,17.1869977 324.675,17.637 C324.765,18.0870022 324.81,18.5519976 324.81,19.032 L324.81,24 L323.19,24 L323.19,19.248 C323.19,18.9239984 323.169,18.6120015 323.127,18.312 C323.085,18.0119985 322.998001,17.7480011 322.866,17.52 C322.733999,17.2919989 322.548001,17.1090007 322.308,16.971 C322.067999,16.8329993 321.750002,16.764 321.354,16.764 C320.573996,16.764 320.016002,17.0039976 319.68,17.484 C319.343998,17.9640024 319.176,18.5819962 319.176,19.338 L319.176,24 L317.556,24 L317.556,19.536 C317.556,19.127998 317.535,18.7560017 317.493,18.42 C317.451,18.0839983 317.367001,17.7930012 317.241,17.547 C317.114999,17.3009988 316.935001,17.1090007 316.701,16.971 C316.466999,16.8329993 316.152002,16.764 315.756,16.764 C315.467999,16.764 315.189001,16.8209994 314.919,16.935 C314.648999,17.0490006 314.412001,17.2199989 314.208,17.448 C314.003999,17.6760011 313.842001,17.9669982 313.722,18.321 C313.601999,18.6750018 313.542,19.0919976 313.542,19.572 L313.542,24 L311.922,24 L311.922,15.468 Z" id="EDWARDDecision-MakingPlatform"></path>
        </g>
    </g>
</svg>