<?xml version="1.0" encoding="UTF-8"?>
<svg width="17px" height="16px" viewBox="0 0 17 16" version="1.1" xmlns="http://www.w3.org/2000/svg" xmlns:xlink="http://www.w3.org/1999/xlink">
    <!-- Generator: sketchtool 57.1 (101010) - https://sketch.com -->
    <title>1BA5712E-809B-4B52-96B3-FBDCD59462F6</title>
    <desc>Created with sketchtool.</desc>
    <g id="Asset-Artboard-Page" stroke="none" stroke-width="1" fill="none" fill-rule="evenodd">
        <g id="Actions" transform="translate(0.202213, 0.000000)" fill="#D8D8D8">
            <path d="M6,14.0811613 C6,13.0198739 6.86176537,12.1623536 7.92305277,12.1623536 C8.98434018,12.1623536 9.84610555,13.024119 9.84610555,14.0811613 C9.84610555,15.1424487 8.98434018,15.9999845 7.92305277,15.9999845 C6.86176537,16.004214 6,15.1424487 6,14.0811613 Z M6,8.00210702 C6,6.94081961 6.86176537,6.08329939 7.92305277,6.08329939 C8.98434018,6.08329939 9.84610555,6.94506476 9.84610555,8.00210702 C9.84610555,9.06339442 8.98434018,9.92091464 7.92305277,9.92091464 C6.86176537,9.92091464 6,9.06339442 6,8.00210702 Z M6,1.91880762 C6,0.857520221 6.86176537,0 7.92305277,0 C8.98434018,0 9.84610555,0.861765371 9.84610555,1.91880762 C9.84610555,2.97584988 8.98434018,3.8418604 7.92305277,3.8418604 C6.86176537,3.8418604 6,2.98009503 6,1.91880762 Z" id="MORE_2_2_" transform="translate(7.923053, 8.000000) rotate(90.000000) translate(-7.923053, -8.000000) "></path>
        </g>
    </g>
</svg>