<?xml version="1.0" encoding="UTF-8"?>
<svg width="17px" height="16px" viewBox="0 0 17 16" version="1.1" xmlns="http://www.w3.org/2000/svg" xmlns:xlink="http://www.w3.org/1999/xlink">
    <!-- Generator: sketchtool 57.1 (101010) - https://sketch.com -->
    <title>C3AACD79-3E0A-493C-AEEC-81AEE2E27AAF</title>
    <desc>Created with sketchtool.</desc>
    <g id="Asset-Artboard-Page" stroke="none" stroke-width="1" fill="none" fill-rule="evenodd">
        <g id="Icon/16x16-minus" transform="translate(0.202213, 0.000000)" fill="#D8D8D8">
            <path d="M7.214928,10.205 L7.20493599,10.205 L6.10581526,9.115 L6.11580726,9.105 L13.0212831,2.195 L14.1094126,3.295 L7.214928,10.205 Z M5.28647068,11.035 L5.61620689,10.035 L5.6261989,10.025 L6.28567132,10.695 L6.27667851,10.695 L5.28647068,11.035 Z M15.1685653,2.935 L13.3700041,1.135 C13.190148,0.955 12.8504198,0.955 12.6705637,1.135 L5.07663862,8.735 C5.0466626,8.765 5.01668658,8.805 4.98770976,8.845 C4.96672655,8.875 4.94674253,8.905 4.93675053,8.945 L4.91676651,9.015 L4.00749391,11.675 C3.94754187,11.855 3.9975019,12.055 4.12739799,12.195 C4.22831726,12.285 4.34722214,12.335 4.47811742,12.335 C4.53707026,12.335 4.5870303,12.325 4.63798953,12.315 L7.31584731,11.395 L7.36480815,11.375 C7.39578337,11.365 7.42476019,11.355 7.4447442,11.345 C7.48571143,11.325 7.51468825,11.305 7.54466427,11.275 L15.1685653,3.645 C15.3684055,3.445 15.3684055,3.135 15.1685653,2.935 L15.1685653,2.935 Z" id="Fill-3"></path>
            <path d="M14.4884093,15.3534 L1.49880096,15.3534 C1.22302159,15.3534 0.999200642,15.1294 0.999200642,14.8534 L0.999200642,1.8534 C0.999200642,1.5774 1.22302159,1.3534 1.49880096,1.3534 L7.99360514,1.3534 C8.26938451,1.3534 8.49320546,1.5774 8.49320546,1.8534 C8.49320546,2.1294 8.26938451,2.3534 7.99360514,2.3534 L1.99840128,2.3534 L1.99840128,14.3534 L13.988809,14.3534 L13.988809,8.3534 C13.988809,8.0774 14.2126299,7.8534 14.4884093,7.8534 C14.7641887,7.8534 14.9880096,8.0774 14.9880096,8.3534 L14.9880096,14.8534 C14.9880096,15.1294 14.7641887,15.3534 14.4884093,15.3534" id="Fill-8"></path>
        </g>
    </g>
</svg>