<?xml version="1.0" encoding="UTF-8"?>
<svg width="17px" height="16px" viewBox="0 0 17 16" version="1.1" xmlns="http://www.w3.org/2000/svg" xmlns:xlink="http://www.w3.org/1999/xlink">
    <!-- Generator: sketchtool 57.1 (101010) - https://sketch.com -->
    <title>C0C15752-C8E7-447B-9CFF-83A6315E985D</title>
    <desc>Created with sketchtool.</desc>
    <g id="Asset-Artboard-Page" stroke="none" stroke-width="1" fill="none" fill-rule="evenodd">
        <g id="Icon/launchpad" transform="translate(0.202213, 0.000000)" fill="#072244">
            <g id="Group-6">
                <path d="M1,6 L6,6 L6,1 L1,1 L1,6 Z M6.5,7 L0.5,7 C0.224,7 0,6.776 0,6.5 L0,0.5 C0,0.224 0.224,0 0.5,0 L6.5,0 C6.776,0 7,0.224 7,0.5 L7,6.5 C7,6.776 6.776,7 6.5,7 L6.5,7 Z" id="Fill-1"></path>
                <path d="M10,6 L15,6 L15,1 L10,1 L10,6 Z M15.5,7 L9.5,7 C9.224,7 9,6.776 9,6.5 L9,0.5 C9,0.224 9.224,0 9.5,0 L15.5,0 C15.776,0 16,0.224 16,0.5 L16,6.5 C16,6.776 15.776,7 15.5,7 L15.5,7 Z" id="Fill-3"></path>
                <path d="M1,15 L6,15 L6,10 L1,10 L1,15 Z M6.5,16 L0.5,16 C0.224,16 0,15.776 0,15.5 L0,9.5 C0,9.224 0.224,9 0.5,9 L6.5,9 C6.776,9 7,9.224 7,9.5 L7,15.5 C7,15.776 6.776,16 6.5,16 L6.5,16 Z" id="Fill-4"></path>
                <path d="M10,15 L15,15 L15,10 L10,10 L10,15 Z M15.5,16 L9.5,16 C9.224,16 9,15.776 9,15.5 L9,9.5 C9,9.224 9.224,9 9.5,9 L15.5,9 C15.776,9 16,9.224 16,9.5 L16,15.5 C16,15.776 15.776,16 15.5,16 L15.5,16 Z" id="Fill-5"></path>
            </g>
        </g>
    </g>
</svg>