<?xml version="1.0" encoding="UTF-8"?>
<svg width="17px" height="16px" viewBox="0 0 17 16" version="1.1" xmlns="http://www.w3.org/2000/svg" xmlns:xlink="http://www.w3.org/1999/xlink">
    <!-- Generator: sketchtool 57.1 (101010) - https://sketch.com -->
    <title>7CBCA4D0-C6E1-4CB3-B242-4D723679CAE4</title>
    <desc>Created with sketchtool.</desc>
    <g id="Asset-Artboard-Page" stroke="none" stroke-width="1" fill="none" fill-rule="evenodd">
        <g id="Icon/16x16-plus" transform="translate(0.189424, 0.000000)" fill="#FFFFFF">
            <path d="M15.9995,8 C15.9995,8.55 15.5505,9 14.9995,9 L8.9995,9 L8.9995,15 C8.9995,15.55 8.5505,16 7.9995,16 C7.4505,16 6.9995,15.55 6.9995,15 L6.9995,9 L0.9995,9 C0.4505,9 -0.0005,8.55 -0.0005,8 C-0.0005,7.45 0.4505,7 0.9995,7 L6.9995,7 L6.9995,1 C6.9995,0.45 7.4505,0 7.9995,0 C8.5505,0 8.9995,0.45 8.9995,1 L8.9995,7 L14.9995,7 C15.5505,7 15.9995,7.45 15.9995,8" id="Fill-1"></path>
        </g>
    </g>
</svg>