<?xml version="1.0" encoding="UTF-8"?>
<svg width="21px" height="20px" viewBox="0 0 21 20" version="1.1" xmlns="http://www.w3.org/2000/svg" xmlns:xlink="http://www.w3.org/1999/xlink">
    <!-- Generator: sketchtool 57.1 (101010) - https://sketch.com -->
    <title>84C6384F-47A2-467E-91D8-7A278EC1AD28</title>
    <desc>Created with sketchtool.</desc>
    <g id="Asset-Artboard-Page" stroke="none" stroke-width="1" fill="none" fill-rule="evenodd">
        <g id="Intercom" transform="translate(0.189424, 0.000000)" fill="#D95040">
            <path d="M18.3044371,12.763063 L15.3800622,11.5624379 L15.3800622,11.5499379 C15.6800622,10.5243129 15.6925622,9.46181285 15.3800622,8.44868782 L18.2919371,7.23493778 C18.9169371,9.07368784 18.8919371,11.0118129 18.3044371,12.763063 M7.24443767,18.291187 L8.43131265,15.4024371 C9.45631263,15.7018121 10.5438126,15.7018121 11.5688126,15.4143121 L12.7556876,18.291187 C10.9188126,18.916187 8.98131264,18.878687 7.24443767,18.291187 M5.98193725,11.6624376 C5.56943725,10.6374376 5.55693725,9.4736876 5.98193725,8.44868762 C6.00693725,8.41056262 6.00693725,8.38556262 6.01943725,8.34868762 L6.03193725,8.34868762 C6.88193723,6.22181266 9.54318718,5.12118768 11.6431871,6.02243766 L11.6556871,6.00931266 C11.6931871,6.03431266 11.7181871,6.03431266 11.7556871,6.04743766 C12.7556871,6.47243766 13.5800621,7.30993764 14.0181871,8.33556262 L14.0300621,8.37368762 C14.4675621,9.4236876 14.4675621,10.5743126 14.0431871,11.6374376 L14.0300621,11.6624376 C14.0181871,11.6874376 14.0050621,11.7249376 14.0050621,11.7624376 C13.1306871,13.8011875 10.5438122,14.9136875 8.4313122,14.0768125 L8.3694372,14.0518125 C8.3563122,14.0386875 8.3438122,14.0261875 8.3313122,14.0261875 C8.3063122,14.0136875 8.3063122,14.0136875 8.2938122,14.0261875 C7.24443722,13.5630625 6.43193724,12.7505625 5.98193725,11.6624376 M4.63193731,11.5499379 L1.72006242,12.763063 C1.09506244,10.9249379 1.12006244,8.98618784 1.72006242,7.23493778 L4.65693731,8.44868782 C4.35756232,9.46181285 4.34443732,10.5243129 4.63193731,11.5499379 M12.7556876,1.69493758 L11.5306876,4.64681265 C10.5306876,4.34618764 9.48131263,4.35868764 8.46943765,4.65868765 L7.24443767,1.70743758 C9.08131264,1.08243757 11.0188126,1.11931257 12.7556876,1.69493758 M19.2419372,6.17243743 C18.1919372,3.63368746 16.2050622,1.75743748 13.8556873,0.781812491 C13.8425623,0.769937491 13.8425623,0.769937491 13.8175623,0.769937491 L13.7806873,0.744937491 C11.4181873,-0.206312498 8.70693734,-0.293812497 6.18193739,0.756812491 C3.64506243,1.80743748 1.78256247,3.78368746 0.795062486,6.12243743 L0.770062486,6.17243743 C0.770062486,6.19743743 0.770062486,6.19743743 0.758187486,6.20993743 C-0.216812496,8.5605624 -0.291812495,11.2874374 0.770062486,13.8261873 C1.82006247,16.3774373 3.81943743,18.2661873 6.18193739,19.2293123 C8.54381235,20.2168123 11.2931873,20.2918123 13.8306873,19.2411873 C16.3675622,18.1911873 18.2419372,16.1899373 19.2294372,13.8261873 C20.2169371,11.4624374 20.2919371,8.7236874 19.2419372,6.17243743" id="SOS"></path>
        </g>
    </g>
</svg>